<?xml version="1.0" encoding="UTF-8"?>
<!DOCTYPE svg PUBLIC "-//W3C//DTD SVG 1.1//EN" "http://www.w3.org/Graphics/SVG/1.1/DTD/svg11.dtd">
<svg xmlns="http://www.w3.org/2000/svg" version="1.1" width="256px" height="256px" style="shape-rendering:geometricPrecision; text-rendering:geometricPrecision; image-rendering:optimizeQuality; fill-rule:evenodd; clip-rule:evenodd" xmlns:xlink="http://www.w3.org/1999/xlink">
<g><path style="opacity:1" fill="#f9faf9" d="M -0.5,19.5 C -0.5,19.1667 -0.5,18.8333 -0.5,18.5C 85.0585,54.2786 170.392,90.6119 255.5,127.5C 255.5,127.833 255.5,128.167 255.5,128.5C 245.859,132.652 236.193,136.819 226.5,141C 202.166,144 177.833,147 153.5,150C 156.4,156.192 159.4,162.359 162.5,168.5C 110.625,191.27 58.6252,213.77 6.5,236C 4.55269,236.991 2.55269,237.325 0.5,237C 25.9996,200.998 50.9996,164.664 75.5,128C 50.7077,91.3877 25.3743,55.221 -0.5,19.5 Z M 47.5,62.5 C 76.5998,76.1461 105.933,89.3128 135.5,102C 128.482,110.207 124.315,119.707 123,130.5C 111.876,136.613 102.21,144.613 94,154.5C 80.9688,170.357 67.8021,186.024 54.5,201.5C 75.92,169.565 97.5867,137.732 119.5,106C 112.5,102.833 105.5,99.6667 98.5,96.5C 95.1941,99.7667 92.3608,103.433 90,107.5C 78.388,90.0556 64.2214,75.0556 47.5,62.5 Z M 158.5,111.5 C 166.357,115.26 174.357,118.76 182.5,122C 171.184,124.24 159.85,125.406 148.5,125.5C 151.352,120.452 154.685,115.785 158.5,111.5 Z M 72.5,193.5 C 88.7203,176.625 107.554,163.292 129,153.5C 129.956,154.579 130.789,155.745 131.5,157C 110.772,167.685 91.1052,179.852 72.5,193.5 Z"/></g>
</svg>
